<svg xmlns="http://www.w3.org/2000/svg" xmlns:xlink="http://www.w3.org/1999/xlink" viewBox="0 0 15.3598 15.3598"><defs><clipPath id="clip-path"><rect width="15.3598" height="15.3601" style="fill:none"/></clipPath></defs><title>aaronpansringar-15</title><g id="Page_15" data-name="Page 15"><g id="Page_15-2" data-name="Page 15"><g style="clip-path:url(#clip-path)"><path d="M7.67957,15.3598a.23959.23959,0,0,1-.16993-.07031L.07019,7.85a.24049.24049,0,0,1,0-.33985L7.50964.07074a.24049.24049,0,0,1,.33985,0l7.44043,7.43945a.24049.24049,0,0,1,0,.33985L7.84949,15.28949A.23959.23959,0,0,1,7.67957,15.3598ZM.579,7.68011,7.67957,14.7807l7.10058-7.10059L7.67957.57953Z"/><path d="M.99207,8.6723a.24023.24023,0,0,1-.16993-.41015L8.2616.82172a.2403.2403,0,0,1,.33984.33984L1.162,8.602A.23959.23959,0,0,1,.99207,8.6723Z"/><path d="M1.73328,9.41449a.24024.24024,0,0,1-.16993-.41016L9.00378,1.5639a.24031.24031,0,1,1,.33985.33985L1.9032,9.34418A.23959.23959,0,0,1,1.73328,9.41449Z"/><path d="M2.47546,10.15668a.24024.24024,0,0,1-.16992-.41016L9.746,2.30609a.24031.24031,0,0,1,.33985.33985L2.64539,10.08636A.23956.23956,0,0,1,2.47546,10.15668Z"/><path d="M3.21765,10.89886a.24023.24023,0,0,1-.16992-.41015l7.44043-7.44043a.2403.2403,0,0,1,.33984.33984L3.38757,10.82855A.23953.23953,0,0,1,3.21765,10.89886Z"/><path d="M3.95984,11.64105a.24023.24023,0,0,1-.16992-.41015l7.44043-7.44043a.2403.2403,0,0,1,.33984.33984L4.12976,11.57074A.23957.23957,0,0,1,3.95984,11.64105Z"/><path d="M4.702,12.38226a.24023.24023,0,0,1-.16993-.41015l7.43946-7.43946a.24031.24031,0,1,1,.33984.33985L4.872,12.312A.23954.23954,0,0,1,4.702,12.38226Z"/><path d="M5.44421,13.12445a.24024.24024,0,0,1-.16992-.41016l7.43946-7.43945a.24031.24031,0,0,1,.33984.33985L5.61414,13.05414A.23959.23959,0,0,1,5.44421,13.12445Z"/><path d="M6.1864,13.86664a.24024.24024,0,0,1-.16992-.41016L13.45593,6.017a.24031.24031,0,1,1,.33985.33984L6.35632,13.79633A.23957.23957,0,0,1,6.1864,13.86664Z"/><path d="M6.92859,14.60883a.24024.24024,0,0,1-.16992-.41016l7.43945-7.43945a.2403.2403,0,1,1,.33984.33984L7.09851,14.53851A.23954.23954,0,0,1,6.92859,14.60883Z"/></g></g></g></svg>