<svg xmlns="http://www.w3.org/2000/svg" xmlns:xlink="http://www.w3.org/1999/xlink" viewBox="0 0 15.3598 15.3598"><defs><clipPath id="clip-path"><rect width="15.3598" height="15.3601" style="fill:none"/></clipPath></defs><title>aaronpansringar-14</title><g id="Page_14" data-name="Page 14"><g id="Page_14-2" data-name="Page 14"><g style="clip-path:url(#clip-path)"><path d="M7.68,15.3598a.23959.23959,0,0,1-.16992-.07031L.07062,7.85a.24049.24049,0,0,1,0-.33985L7.51007.07074a.24047.24047,0,0,1,.33984,0l7.43946,7.43945a.24049.24049,0,0,1,0,.33985L7.84991,15.28949A.23955.23955,0,0,1,7.68,15.3598ZM.57941,7.68011,7.68,14.7807l7.10059-7.10059L7.68.57953Z"/><path d="M7.68,15.3598a.23959.23959,0,0,1-.16992-.07031L.07062,7.85a.24048.24048,0,0,1,.16992-.41016H15.11945a.24048.24048,0,0,1,.16992.41016L7.84991,15.28949A.23955.23955,0,0,1,7.68,15.3598ZM.81964,7.92035,7.68,14.7807l6.86035-6.86035Z"/><path d="M1.74347,7.92035a.24024.24024,0,0,1-.16992-.41016L8.261.82172a.2403.2403,0,0,1,.33984.33984L1.91339,7.85A.23957.23957,0,0,1,1.74347,7.92035Z"/><path d="M3.22784,7.92035a.24024.24024,0,0,1-.16992-.41016L9.00323,1.5639a.24031.24031,0,1,1,.33985.33985L3.39777,7.85A.23959.23959,0,0,1,3.22784,7.92035Z"/><path d="M4.71124,7.92035a.24024.24024,0,0,1-.16992-.41016l5.2041-5.2041a.24031.24031,0,0,1,.33985.33985L4.88116,7.85A.23955.23955,0,0,1,4.71124,7.92035Z"/><path d="M6.19562,7.92035a.24024.24024,0,0,1-.16992-.41016l4.46191-4.46191a.2403.2403,0,1,1,.33984.33984L6.36554,7.85A.23959.23959,0,0,1,6.19562,7.92035Z"/><path d="M7.68,7.92035a.24024.24024,0,0,1-.16992-.41016L11.2298,3.79047a.2403.2403,0,0,1,.33984.33984L7.84991,7.85A.23955.23955,0,0,1,7.68,7.92035Z"/><path d="M9.16437,7.92035a.24024.24024,0,0,1-.16992-.41016L11.972,4.53265a.24031.24031,0,1,1,.33985.33985L9.33429,7.85A.23959.23959,0,0,1,9.16437,7.92035Z"/><path d="M10.64777,7.92035a.24024.24024,0,0,1-.16993-.41016l2.23633-2.23535a.24031.24031,0,0,1,.33985.33985L10.81769,7.85A.23959.23959,0,0,1,10.64777,7.92035Z"/><path d="M12.13214,7.92035a.24024.24024,0,0,1-.16992-.41016L13.45636,6.017a.2403.2403,0,1,1,.33984.33984L12.30206,7.85A.23957.23957,0,0,1,12.13214,7.92035Z"/><path d="M13.61652,7.92035a.24024.24024,0,0,1-.16993-.41016l.752-.751a.2403.2403,0,0,1,.33984.33984l-.75195.751A.23959.23959,0,0,1,13.61652,7.92035Z"/></g></g></g></svg>