<svg xmlns="http://www.w3.org/2000/svg" xmlns:xlink="http://www.w3.org/1999/xlink" viewBox="0 0 15.3598 15.3598"><defs><clipPath id="clip-path"><rect width="15.3598" height="15.3601" style="fill:none"/></clipPath></defs><title>aaronpansringar-22</title><g id="Page_22" data-name="Page 22"><g id="Page_22-2" data-name="Page 22"><g style="clip-path:url(#clip-path)"><path d="M6.4803,2.3975A1.15729,1.15729,0,0,1,7.6799,1.1979,1.21631,1.21631,0,0,1,8.8795,2.3975L8.3999,9.8354a.72.72,0,0,1-1.44,0Z" style="fill:#e69138"/><path d="M7.3596,11.9982h.6406a.6409.6409,0,0,1,.6395.6395v.6406a.6409.6409,0,0,1-.6395.6395H7.3596a.6409.6409,0,0,1-.6395-.6395v-.6406a.6409.6409,0,0,1,.6395-.6395" style="fill:#e69138;fill-rule:evenodd"/></g></g></g></svg>