<svg xmlns="http://www.w3.org/2000/svg" xmlns:xlink="http://www.w3.org/1999/xlink" viewBox="0 0 15.3598 15.3598"><defs><clipPath id="clip-path"><rect width="15.3598" height="15.3601" style="fill:none"/></clipPath></defs><title>aaronpansringar-02</title><g id="Page_2" data-name="Page 2"><g id="Page_2-2" data-name="Page 2"><g style="clip-path:url(#clip-path)"><path d="M7.67975,15.3598A7.67969,7.67969,0,1,1,15.359,7.68011,7.68825,7.68825,0,0,1,7.67975,15.3598Zm0-14.8789a7.19922,7.19922,0,1,0,7.19971,7.19921A7.2077,7.2077,0,0,0,7.67975.4809Z"/><path d="M7.67975,15.3598A.24.24,0,0,1,7.44,15.11957V.24066A.24.24,0,0,1,7.67975.00043a7.67969,7.67969,0,0,1,0,15.35937ZM7.91949.4848V14.87543a7.19929,7.19929,0,0,0,0-14.39063Z"/><path d="M7.67975,2.8764a.23762.23762,0,0,1-.16944-.07031.24047.24047,0,0,1,0-.33984L9.606.37054a.24.24,0,0,1,.33887.33985L7.84918,2.80609A.23758.23758,0,0,1,7.67975,2.8764Z"/><path d="M7.67975,4.558a.23762.23762,0,0,1-.16944-.07031.24091.24091,0,0,1-.00048-.33984L10.814.8432a.2403.2403,0,0,1,.33984.33984L7.84967,4.48773A.23953.23953,0,0,1,7.67975,4.558Z"/><path d="M7.67975,6.23871a.23766.23766,0,0,1-.16944-.07031.24049.24049,0,0,1,0-.33985L11.86285,1.476a.24.24,0,0,1,.33887.33985L7.84918,6.1684A.23763.23763,0,0,1,7.67975,6.23871Z"/><path d="M7.67975,7.92035A.23766.23766,0,0,1,7.51031,7.85a.24092.24092,0,0,1-.00048-.33985l5.26025-5.26074a.24013.24013,0,1,1,.33936.33984L7.84967,7.85A.23957.23957,0,0,1,7.67975,7.92035Z"/><path d="M7.67975,9.601a.24.24,0,0,1-.16944-.41015L13.544,3.15765a.24.24,0,1,1,.33886.33985L7.84918,9.5307A.23758.23758,0,0,1,7.67975,9.601Z"/><path d="M7.67975,11.28265a.23762.23762,0,0,1-.16944-.07031.24047.24047,0,0,1,0-.33984l6.666-6.667a.24013.24013,0,1,1,.33936.33984l-6.66651,6.667A.23758.23758,0,0,1,7.67975,11.28265Z"/><path d="M7.67975,12.96429a.23762.23762,0,0,1-.16944-.07031.24047.24047,0,0,1,0-.33984L14.65,5.41449a.24.24,0,0,1,.33887.33984L7.84918,12.894A.23758.23758,0,0,1,7.67975,12.96429Z"/><path d="M7.67975,14.645a.23766.23766,0,0,1-.16944-.07031.24049.24049,0,0,1,0-.33985l7.40821-7.4082a.24.24,0,0,1,.33887.33984L7.84918,14.57465A.23763.23763,0,0,1,7.67975,14.645Z"/><path d="M8.71832,15.28754a.23761.23761,0,0,1-.16943-.07032.24047.24047,0,0,1,0-.33984L14.8775,8.54926a.24.24,0,1,1,.33887.33984L8.88776,15.21722A.23762.23762,0,0,1,8.71832,15.28754Z"/></g></g></g></svg>