<svg xmlns="http://www.w3.org/2000/svg" xmlns:xlink="http://www.w3.org/1999/xlink" viewBox="0 0 15.3598 15.3598"><defs><clipPath id="clip-path"><rect width="15.3598" height="15.3601" style="fill:none"/></clipPath></defs><title>aaronpansringar-05</title><g id="Page_5" data-name="Page 5"><g id="Page_5-2" data-name="Page 5"><g style="clip-path:url(#clip-path)"><path d="M7.67993,15.3598a7.67969,7.67969,0,1,1,7.6792-7.67969A7.68825,7.68825,0,0,1,7.67993,15.3598Zm0-14.8789a7.19922,7.19922,0,1,0,7.19971,7.19921A7.20771,7.20771,0,0,0,7.67993.4809Z"/><path d="M11.28,7.92133H4.07983a.24024.24024,0,0,1,0-.48047H11.28a.24024.24024,0,0,1,0,.48047Z"/><path d="M11.11011,7.851,8.47046,5.21039a.24.24,0,0,1,.33887-.33985L11.45,7.51117Z"/><path d="M8.63989,10.561a.2376.2376,0,0,1-.16943-.07031.24047.24047,0,0,1,0-.33984L11.1106,7.51117l.33886.33984L8.80933,10.49066A.23761.23761,0,0,1,8.63989,10.561Z"/></g></g></g></svg>