<svg xmlns="http://www.w3.org/2000/svg" xmlns:xlink="http://www.w3.org/1999/xlink" viewBox="0 0 15.3598 15.3598"><defs><clipPath id="clip-path"><rect width="15.3598" height="15.3601" style="fill:none"/></clipPath></defs><title>aaronpansringar-25</title><g id="Page_25" data-name="Page 25"><g id="Page_25-2" data-name="Page 25"><g style="clip-path:url(#clip-path)"><path d="M7.6799,12.2377a.9601.9601,0,1,1-.9601.9601.96.96,0,0,1,.9601-.9601" style="fill-rule:evenodd"/><path d="M5.5199,5.0377a.72.72,0,0,1-1.44,0A3.59951,3.59951,0,1,1,8.8787,8.4316a.72419.72419,0,0,0-.3527.2577.74556.74556,0,0,0-.1261.4218V10.315a.72.72,0,0,1-1.44,0V9.1111a2.15113,2.15113,0,0,1,.3923-1.2475,2.17639,2.17639,0,0,1,1.0486-.7875A2.16118,2.16118,0,1,0,5.5199,5.0377"/></g></g></g></svg>