<svg xmlns="http://www.w3.org/2000/svg" xmlns:xlink="http://www.w3.org/1999/xlink" viewBox="0 0 15.3598 15.3598"><defs><clipPath id="clip-path"><rect width="15.3598" height="15.3601" style="fill:none"/></clipPath></defs><title>aaronpansringar-16</title><g id="Page_16" data-name="Page 16"><g id="Page_16-2" data-name="Page 16"><g style="clip-path:url(#clip-path)"><path d="M11.27972,7.92133H4.07953a.24024.24024,0,1,1,0-.48047h7.20019a.24024.24024,0,1,1,0,.48047Z"/><path d="M4.24945,7.851l-.33984-.33984S6.311,5.11078,6.55121,4.87152a.23961.23961,0,1,1,.33789.33984C6.64886,5.45062,4.24945,7.851,4.24945,7.851Z"/><path d="M6.72015,10.561a.2373.2373,0,0,1-.16894-.07031C6.311,10.2514,3.90961,7.851,3.90961,7.851l.33984-.33984S6.64886,9.91156,6.8891,10.15082a.24022.24022,0,0,1-.16895.41015Z"/><path d="M7.68011,15.3598a.23959.23959,0,0,1-.16992-.07031L.06976,7.85a.24049.24049,0,0,1,0-.33985L7.51019.07074a.24049.24049,0,0,1,.33985,0l7.43945,7.43945a.24049.24049,0,0,1,0,.33985L7.85,15.28949A.23959.23959,0,0,1,7.68011,15.3598ZM.57953,7.68011,7.68011,14.7807,14.7807,7.68011,7.68011.57953Z"/></g></g></g></svg>