<svg xmlns="http://www.w3.org/2000/svg" xmlns:xlink="http://www.w3.org/1999/xlink" viewBox="0 0 15.3598 15.3598"><defs><clipPath id="clip-path"><rect width="15.3598" height="15.3601" style="fill:none"/></clipPath></defs><title>aaronpansringar-06</title><g id="Page_6" data-name="Page 6"><g id="Page_6-2" data-name="Page 6"><g style="clip-path:url(#clip-path)"><path d="M7.68,15.3598a7.67969,7.67969,0,1,1,7.6792-7.67969A7.68825,7.68825,0,0,1,7.68,15.3598ZM7.68.4809A7.19922,7.19922,0,1,0,14.8797,7.68011,7.2077,7.2077,0,0,0,7.68.4809Z"/><path d="M10.14923,10.48773,4.87238,5.21136a.24.24,0,1,1,.33886-.33984l5.27686,5.27637Z"/><path d="M5.04181,10.558a.24.24,0,0,1-.16943-.41015l5.27685-5.27637.33887.33984L5.21124,10.48773A.23841.23841,0,0,1,5.04181,10.558Z"/></g></g></g></svg>