<svg xmlns="http://www.w3.org/2000/svg" xmlns:xlink="http://www.w3.org/1999/xlink" viewBox="0 0 15.3598 15.3598"><defs><clipPath id="clip-path"><rect width="15.3598" height="15.3601" style="fill:none"/></clipPath></defs><title>aaronpansringar-08</title><g id="Page_8" data-name="Page 8"><g id="Page_8-2" data-name="Page 8"><g style="clip-path:url(#clip-path)"><path d="M14.39935,14.64008H7.68011a.24.24,0,0,1-.23974-.24024V.96039A.24.24,0,0,1,7.68011.72015h6.71924a.24.24,0,0,1,.23975.24024V14.39984A.24.24,0,0,1,14.39935,14.64008Zm-6.47949-.48047h6.23975V1.20062H7.91986Z"/><path d="M14.39935,14.64008H.96039a.24.24,0,0,1-.23975-.24024V.96039A.24.24,0,0,1,.96039.72015h13.439a.24.24,0,0,1,.23975.24024V14.39984A.24.24,0,0,1,14.39935,14.64008ZM1.20013,14.15961H14.15961V1.20062H1.20013Z"/><path d="M7.68011,2.8764a.23843.23843,0,0,1-.16943-.07031.24092.24092,0,0,1-.00049-.33984L9.18549.79047a.2403.2403,0,0,1,.33984.33984L7.85,2.80609A.23955.23955,0,0,1,7.68011,2.8764Z"/><path d="M7.68011,4.558a.23843.23843,0,0,1-.16943-.07031.24092.24092,0,0,1-.00049-.33984L10.86664.79047a.2403.2403,0,0,1,.33984.33984L7.85,4.48773A.23955.23955,0,0,1,7.68011,4.558Z"/><path d="M7.68011,6.23871a.23764.23764,0,0,1-.16943-.07031.24049.24049,0,0,1,0-.33985L12.54828.79047a.24.24,0,0,1,.33887.33984L7.85,6.1684A.23959.23959,0,0,1,7.68011,6.23871Z"/><path d="M7.68011,7.92035A.23847.23847,0,0,1,7.51068,7.85a.24093.24093,0,0,1-.00049-.33985L14.22894.79047a.24031.24031,0,0,1,.33985.33984L7.85,7.85A.23959.23959,0,0,1,7.68011,7.92035Z"/><path d="M7.68011,9.601a.2376.2376,0,0,1-.16943-.07031.24047.24047,0,0,1,0-.33984l6.71924-6.71875a.24.24,0,0,1,.33887.33984L7.84955,9.5307A.23761.23761,0,0,1,7.68011,9.601Z"/><path d="M7.68011,11.28265a.2376.2376,0,0,1-.16943-.07031.24047.24047,0,0,1,0-.33984l6.71924-6.71973a.24.24,0,1,1,.33887.33984L7.84955,11.21234A.23761.23761,0,0,1,7.68011,11.28265Z"/><path d="M7.68011,12.96429a.2376.2376,0,0,1-.16943-.07031.24047.24047,0,0,1,0-.33984l6.71924-6.71973a.24.24,0,0,1,.33887.33985L7.84955,12.894A.23761.23761,0,0,1,7.68011,12.96429Z"/><path d="M7.685,14.64008a.23762.23762,0,0,1-.16944-.07032.24047.24047,0,0,1,0-.33984l6.71436-6.71484a.24013.24013,0,0,1,.33935.33984L7.85443,14.56976A.23761.23761,0,0,1,7.685,14.64008Z"/><path d="M9.36615,14.64008a.23759.23759,0,0,1-.16943-.07032.24047.24047,0,0,1,0-.33984l5.0332-5.0332a.24.24,0,0,1,.33887.33984l-5.03321,5.0332A.23759.23759,0,0,1,9.36615,14.64008Z"/><path d="M11.0473,14.64008a.23842.23842,0,0,1-.16943-.07032.24092.24092,0,0,1-.00049-.33984l3.35205-3.35254a.2403.2403,0,0,1,.33984.33984l-3.352,3.35254A.23952.23952,0,0,1,11.0473,14.64008Z"/><path d="M12.72894,14.64008a.23842.23842,0,0,1-.16943-.07032.24092.24092,0,0,1-.00049-.33984l1.67041-1.6709a.2403.2403,0,0,1,.33984.33984l-1.67041,1.6709A.23952.23952,0,0,1,12.72894,14.64008Z"/></g></g></g></svg>