<svg xmlns="http://www.w3.org/2000/svg" xmlns:xlink="http://www.w3.org/1999/xlink" viewBox="0 0 15.3598 15.3598"><defs><clipPath id="clip-path"><rect width="15.3598" height="15.3601" style="fill:none"/></clipPath></defs><title>aaronpansringar-24</title><g id="Page_24" data-name="Page 24"><g id="Page_24-2" data-name="Page 24"><g style="clip-path:url(#clip-path)"><path d="M1.6807,2.3975A1.15729,1.15729,0,0,1,2.8803,1.1979,1.21631,1.21631,0,0,1,4.0799,2.3975L3.6003,9.8354a.72.72,0,0,1-1.44,0Z" style="fill:red"/><path d="M2.56,11.9982h.6406a.6409.6409,0,0,1,.6395.6395v.6406a.6409.6409,0,0,1-.6395.6395H2.56a.6409.6409,0,0,1-.6395-.6395v-.6406a.6409.6409,0,0,1,.6395-.6395" style="fill:red;fill-rule:evenodd"/><path d="M6.4803,2.3975A1.15729,1.15729,0,0,1,7.6799,1.1979,1.21631,1.21631,0,0,1,8.8795,2.3975L8.3999,9.8354a.72.72,0,0,1-1.44,0Z" style="fill:red"/><path d="M7.3596,11.9982h.6406a.6409.6409,0,0,1,.6395.6395v.6406a.6409.6409,0,0,1-.6395.6395H7.3596a.6409.6409,0,0,1-.6395-.6395v-.6406a.6409.6409,0,0,1,.6395-.6395" style="fill:red;fill-rule:evenodd"/><path d="M11.2788,2.3975a1.15729,1.15729,0,0,1,1.1996-1.1996A1.21631,1.21631,0,0,1,13.678,2.3975l-.4796,7.4379a.72.72,0,1,1-1.44,0Z" style="fill:red"/><path d="M12.1581,11.9982h.6406a.6409.6409,0,0,1,.6395.6395v.6406a.6409.6409,0,0,1-.6395.6395h-.6406a.6409.6409,0,0,1-.6395-.6395v-.6406a.6409.6409,0,0,1,.6395-.6395" style="fill:red;fill-rule:evenodd"/></g></g></g></svg>