<svg xmlns="http://www.w3.org/2000/svg" xmlns:xlink="http://www.w3.org/1999/xlink" viewBox="0 0 15.3598 15.3598"><defs><clipPath id="clip-path"><rect width="15.3598" height="15.3601" style="fill:none"/></clipPath></defs><title>aaronpansringar-20</title><g id="Page_20" data-name="Page 20"><g id="Page_20-2" data-name="Page 20"><g style="clip-path:url(#clip-path)"><path d="M8.3999,11.5174h.6823a1.56149,1.56149,0,0,0,1.5602-1.5599l.0028-.002a1.566,1.566,0,0,0-1.561-1.5579l-.6843-.0005Zm-1.44-7.6796H6.2776A1.55882,1.55882,0,0,0,5.1732,6.4981a1.57245,1.57245,0,0,0,1.1044.4624l.6823.0008Zm3.8767-1.44a.72.72,0,1,1,0,1.44H8.3999V6.9599l.6843-.0023a3.00128,3.00128,0,0,1,2.9954,2.9979l.0028.002a3.00641,3.00641,0,0,1-3.0002,2.9999H8.3999v.4797a.72.72,0,0,1-1.44,0v-.4797H4.5232a.72.72,0,1,1,0-1.44H6.9599V8.3956l-.6823-.0008a2.9985,2.9985,0,0,1,0-5.997h.6823V1.9179a.72.72,0,0,1,1.44,0v.4799Z"/></g></g></g></svg>