<svg xmlns="http://www.w3.org/2000/svg" xmlns:xlink="http://www.w3.org/1999/xlink" viewBox="0 0 15.3598 15.3598"><defs><clipPath id="clip-path"><rect width="15.3598" height="15.3601" style="fill:none"/></clipPath></defs><title>aaronpansringar-12</title><g id="Page_12" data-name="Page 12"><g id="Page_12-2" data-name="Page 12"><g style="clip-path:url(#clip-path)"><path d="M14.3996,14.64008H.96063a.24.24,0,0,1-.23974-.24024V.96039A.24.24,0,0,1,.96063.72015h13.439a.24.24,0,0,1,.23974.24024V14.39984A.24.24,0,0,1,14.3996,14.64008ZM1.20038,14.15961H14.15985V1.20062H1.20038Z"/><path d="M10.14911,10.48773,4.87225,5.21136a.24.24,0,1,1,.33887-.33984L10.488,10.14789Z"/><path d="M5.04169,10.558a.24.24,0,0,1-.16944-.41015l5.27686-5.27637.33887.33984L5.21112,10.48773A.23841.23841,0,0,1,5.04169,10.558Z"/></g></g></g></svg>