<svg xmlns="http://www.w3.org/2000/svg" xmlns:xlink="http://www.w3.org/1999/xlink" viewBox="0 0 15.3598 15.3598"><defs><clipPath id="clip-path"><rect width="15.3598" height="15.3601" style="fill:none"/></clipPath></defs><title>aaronpansringar-03</title><g id="Page_3" data-name="Page 3"><g id="Page_3-2" data-name="Page 3"><g style="clip-path:url(#clip-path)"><path d="M7.67981,15.3598A7.67969,7.67969,0,1,1,15.359,7.68011,7.68825,7.68825,0,0,1,7.67981,15.3598Zm0-14.8789a7.19922,7.19922,0,1,0,7.19971,7.19921A7.2077,7.2077,0,0,0,7.67981.4809Z"/><path d="M.31311,6.88031A.23763.23763,0,0,1,.14368,6.81a.24049.24049,0,0,1,0-.33985L6.47083.143a.24.24,0,0,1,.33886.33984L.48254,6.81A.23763.23763,0,0,1,.31311,6.88031Z"/><path d="M.27161,8.603a.23762.23762,0,0,1-.16944-.07032.24047.24047,0,0,1,0-.33984L8.19348.102a.24.24,0,1,1,.33887.33984L.441,8.53265A.23761.23761,0,0,1,.27161,8.603Z"/><path d="M.54016,10.01605a.23763.23763,0,0,1-.16943-.07031.24047.24047,0,0,1,0-.33984L9.60608.37054A.24.24,0,0,1,9.945.71039L.70959,9.94574A.23763.23763,0,0,1,.54016,10.01605Z"/><path d="M1.01331,11.22406a.23765.23765,0,0,1-.16944-.07031.24049.24049,0,0,1,0-.33985L10.81458.8432a.24.24,0,1,1,.33886.33984l-9.9707,9.97071A.23764.23764,0,0,1,1.01331,11.22406Z"/><path d="M1.64612,12.27289a.23765.23765,0,0,1-.16944-.07031.24092.24092,0,0,1-.00048-.33985L11.86292,1.476a.24.24,0,1,1,.33886.33985L1.81555,12.20258A.23763.23763,0,0,1,1.64612,12.27289Z"/><path d="M2.41907,13.18109a.23765.23765,0,0,1-.16944-.07031.24091.24091,0,0,1-.00048-.33984L12.77063,2.24945a.24.24,0,1,1,.33887.33984L2.5885,13.11078A.23764.23764,0,0,1,2.41907,13.18109Z"/><path d="M3.32727,13.95355a.23763.23763,0,0,1-.16943-.07031.24047.24047,0,0,1,0-.33984L13.54407,3.15765a.24.24,0,1,1,.33886.33985L3.4967,13.88324A.23763.23763,0,0,1,3.32727,13.95355Z"/><path d="M4.37512,14.58734a.23764.23764,0,0,1-.16943-.07031.24092.24092,0,0,1-.00049-.33984l9.97168-9.97168a.24.24,0,1,1,.33887.33984L4.54456,14.517A.23765.23765,0,0,1,4.37512,14.58734Z"/><path d="M5.58362,15.06a.23765.23765,0,0,1-.16944-.07031.24049.24049,0,0,1,0-.33985L14.65,5.41449a.24.24,0,0,1,.33887.33984L5.75305,14.98969A.23763.23763,0,0,1,5.58362,15.06Z"/><path d="M6.9967,15.32855a.23764.23764,0,0,1-.16943-.07031.24092.24092,0,0,1-.00049-.33984l8.09131-8.0918a.24013.24013,0,0,1,.33936.33984l-8.09082,8.0918A.23959.23959,0,0,1,6.9967,15.32855Z"/><path d="M8.71838,15.28754a.24.24,0,0,1-.16943-.41016l6.32861-6.32812a.24.24,0,0,1,.33887.33984L8.88782,15.21722A.23762.23762,0,0,1,8.71838,15.28754Z"/></g></g></g></svg>