<svg xmlns="http://www.w3.org/2000/svg" xmlns:xlink="http://www.w3.org/1999/xlink" viewBox="0 0 15.3598 15.3598"><defs><clipPath id="clip-path"><rect width="15.3598" height="15.3601" style="fill:none"/></clipPath></defs><title>aaronpansringar-17</title><g id="Page_17" data-name="Page 17"><g id="Page_17-2" data-name="Page 17"><g style="clip-path:url(#clip-path)"><path d="M11.28027,7.92133H4.08008a.24024.24024,0,1,1,0-.48047h7.20019a.24024.24024,0,1,1,0,.48047Z"/><path d="M11.28027,7.92133a.23955.23955,0,0,1-.16992-.07032L8.46973,5.21039a.24031.24031,0,1,1,.33984-.33985L11.4502,7.51117a.24024.24024,0,0,1-.16993.41016Z"/><path d="M8.63965,10.561a.24023.24023,0,0,1-.16992-.41015l2.64062-2.63965.33985.33984L8.80957,10.49066A.23953.23953,0,0,1,8.63965,10.561Z"/><path d="M7.67969,15.3598a.23955.23955,0,0,1-.16992-.07031L.07031,7.85a.24049.24049,0,0,1,0-.33985L7.50977.07074a.24047.24047,0,0,1,.33984,0L15.29,7.51019a.24049.24049,0,0,1,0,.33985L7.84961,15.28949A.23959.23959,0,0,1,7.67969,15.3598ZM.5791,7.68011,7.67969,14.7807l7.10058-7.10059L7.67969.57953Z"/></g></g></g></svg>