<svg xmlns="http://www.w3.org/2000/svg" xmlns:xlink="http://www.w3.org/1999/xlink" viewBox="0 0 15.3598 15.3598"><defs><clipPath id="clip-path"><rect width="15.3598" height="15.3601" style="fill:none"/></clipPath></defs><title>aaronpansringar-04</title><g id="Page_4" data-name="Page 4"><g id="Page_4-2" data-name="Page 4"><g style="clip-path:url(#clip-path)"><path d="M7.67987,15.3598a7.67969,7.67969,0,1,1,7.6792-7.67969A7.68825,7.68825,0,0,1,7.67987,15.3598Zm0-14.8789a7.19922,7.19922,0,1,0,7.19971,7.19921A7.2077,7.2077,0,0,0,7.67987.4809Z"/><path d="M11.28,7.92133H4.07977a.24024.24024,0,0,1,0-.48047H11.28a.24024.24024,0,0,1,0,.48047Z"/><path d="M4.24969,7.851l-.33984-.33984S6.31024,5.11078,6.55048,4.87152a.24.24,0,0,1,.33886.33984C6.64911,5.45062,4.24969,7.851,4.24969,7.851Z"/><path d="M6.71991,10.561a.23923.23923,0,0,1-.16943-.07031C6.31024,10.2514,3.90985,7.851,3.90985,7.851l.33984-.33984s2.39942,2.40039,2.63965,2.63965a.2393.2393,0,0,1,.00049.33887A.23655.23655,0,0,1,6.71991,10.561Z"/></g></g></g></svg>