<svg xmlns="http://www.w3.org/2000/svg" xmlns:xlink="http://www.w3.org/1999/xlink" viewBox="0 0 15.3598 15.3598"><defs><clipPath id="clip-path"><rect width="15.3598" height="15.3601" style="fill:none"/></clipPath></defs><title>aaronpansringar-10</title><g id="Page_10" data-name="Page 10"><g id="Page_10-2" data-name="Page 10"><g style="clip-path:url(#clip-path)"><path d="M14.39948,14.64008H.96051a.24.24,0,0,1-.23975-.24024V.96039A.24.24,0,0,1,.96051.72015h13.439a.24.24,0,0,1,.23974.24024V14.39984A.24.24,0,0,1,14.39948,14.64008ZM1.20026,14.15961H14.15973V1.20062H1.20026Z"/><path d="M11.28033,7.92133H4.08014a.24024.24024,0,0,1,0-.48047h7.20019a.24024.24024,0,0,1,0,.48047Z"/><path d="M4.25006,7.851l-.33984-.33984s2.3999-2.40039,2.64013-2.63965a.24.24,0,0,1,.33887.33984C6.649,5.45062,4.25006,7.851,4.25006,7.851Z"/><path d="M6.71979,10.561a.23927.23927,0,0,1-.16944-.07031C6.31012,10.2514,3.91022,7.851,3.91022,7.851l.33984-.33984S6.649,9.91156,6.88922,10.15082a.2393.2393,0,0,1,.00049.33887A.23657.23657,0,0,1,6.71979,10.561Z"/></g></g></g></svg>