<svg xmlns="http://www.w3.org/2000/svg" xmlns:xlink="http://www.w3.org/1999/xlink" viewBox="0 0 15.3598 15.3598"><defs><clipPath id="clip-path"><rect width="15.3598" height="15.3601" style="fill:none"/></clipPath></defs><title>aaronpansringar-11</title><g id="Page_11" data-name="Page 11"><g id="Page_11-2" data-name="Page 11"><g style="clip-path:url(#clip-path)"><path d="M14.39954,14.64008H.96057a.24.24,0,0,1-.23974-.24024V.96039A.24.24,0,0,1,.96057.72015h13.439a.24.24,0,0,1,.23974.24024V14.39984A.24.24,0,0,1,14.39954,14.64008ZM1.20032,14.15961H14.15979V1.20062H1.20032Z"/><path d="M11.27991,7.92133H4.07971a.24024.24024,0,0,1,0-.48047h7.2002a.24024.24024,0,0,1,0,.48047Z"/><path d="M11.11,7.851,8.47034,5.21039a.24.24,0,0,1,.33886-.33985l2.64063,2.64063Z"/><path d="M8.63977,10.561a.23758.23758,0,0,1-.16943-.07031.24047.24047,0,0,1,0-.33984l2.64013-2.63965.33887.33984L8.8092,10.49066A.23758.23758,0,0,1,8.63977,10.561Z"/></g></g></g></svg>