<svg xmlns="http://www.w3.org/2000/svg" xmlns:xlink="http://www.w3.org/1999/xlink" viewBox="0 0 15.3598 15.3598"><defs><clipPath id="clip-path"><rect width="15.3598" height="15.3601" style="fill:none"/></clipPath></defs><title>aaronpansringar-09</title><g id="Page_9" data-name="Page 9"><g id="Page_9-2" data-name="Page 9"><g style="clip-path:url(#clip-path)"><path d="M14.39941,14.64008H.96045a.24.24,0,0,1-.23975-.24024V.96039A.24.24,0,0,1,.96045.72015h13.439a.24.24,0,0,1,.23975.24024V14.39984A.24.24,0,0,1,14.39941,14.64008ZM1.2002,14.15961H14.15967V1.20062H1.2002Z"/><path d="M.96045,7.91449A.23763.23763,0,0,1,.791,7.84418a.24049.24049,0,0,1,0-.33985L7.50439.79047a.24.24,0,0,1,.33887.33984L1.12988,7.84418A.23763.23763,0,0,1,.96045,7.91449Z"/><path d="M.96045,9.59613A.23763.23763,0,0,1,.791,9.52582a.24049.24049,0,0,1,0-.33985L9.186.79047a.24.24,0,0,1,.33886.33984l-8.395,8.39551A.23763.23763,0,0,1,.96045,9.59613Z"/><path d="M.96045,11.27679A.23758.23758,0,0,1,.791,11.20648a.24047.24047,0,0,1,0-.33984L10.86719.79047a.24.24,0,0,1,.33886.33984L1.12988,11.20648A.23758.23758,0,0,1,.96045,11.27679Z"/><path d="M.96045,12.95844A.23759.23759,0,0,1,.791,12.88812a.24047.24047,0,0,1,0-.33984L12.54785.79047a.24013.24013,0,0,1,.33936.33984L1.12988,12.88812A.23759.23759,0,0,1,.96045,12.95844Z"/><path d="M.96045,14.6391A.23763.23763,0,0,1,.791,14.56879a.24049.24049,0,0,1,0-.33985L14.22949.79047a.24.24,0,0,1,.33887.33984L1.12988,14.56879A.23763.23763,0,0,1,.96045,14.6391Z"/><path d="M2.64111,14.64008a.23761.23761,0,0,1-.16943-.07032.24047.24047,0,0,1,0-.33984L14.23,2.47211a.24.24,0,0,1,.33887.33984L2.81055,14.56976A.23762.23762,0,0,1,2.64111,14.64008Z"/><path d="M4.32227,14.64008a.23762.23762,0,0,1-.16944-.07032.24047.24047,0,0,1,0-.33984L14.23,4.15277a.24.24,0,1,1,.33887.33984L4.4917,14.56976A.23761.23761,0,0,1,4.32227,14.64008Z"/><path d="M6.00342,14.64008a.24.24,0,0,1-.16944-.41016L14.23,5.83441a.24.24,0,0,1,.33887.33985l-8.396,8.3955A.23761.23761,0,0,1,6.00342,14.64008Z"/><path d="M7.68506,14.64008a.23759.23759,0,0,1-.16943-.07032.24092.24092,0,0,1-.00049-.33984L14.23,7.51508a.24.24,0,0,1,.33887.33984L7.85449,14.56976A.23759.23759,0,0,1,7.68506,14.64008Z"/><path d="M9.36621,14.64008a.23759.23759,0,0,1-.16943-.07032.24047.24047,0,0,1,0-.33984L14.23,9.19672a.24.24,0,0,1,.33887.33984l-5.03321,5.0332A.23759.23759,0,0,1,9.36621,14.64008Z"/><path d="M11.04736,14.64008a.23761.23761,0,0,1-.16943-.07032.24092.24092,0,0,1-.00049-.33984l3.35205-3.35254a.24031.24031,0,0,1,.33985.33984l-3.352,3.35254A.23956.23956,0,0,1,11.04736,14.64008Z"/><path d="M12.72852,14.64008a.23762.23762,0,0,1-.16944-.07032.24047.24047,0,0,1,0-.33984L14.23,12.559a.24.24,0,0,1,.33887.33984l-1.6709,1.6709A.23761.23761,0,0,1,12.72852,14.64008Z"/><path d="M.96045,2.64886A.23758.23758,0,0,1,.791,2.57855a.24047.24047,0,0,1,0-.33984L2.23926.79047a.24.24,0,0,1,.33887.33984L1.12988,2.57855A.23758.23758,0,0,1,.96045,2.64886Z"/><path d="M.96045,4.33051A.23759.23759,0,0,1,.791,4.26019a.24092.24092,0,0,1-.00049-.33984L3.91992.79047a.24031.24031,0,0,1,.33985.33984L1.13037,4.26019A.23954.23954,0,0,1,.96045,4.33051Z"/><path d="M.96045,6.01117A.23763.23763,0,0,1,.791,5.94086a.24049.24049,0,0,1,0-.33985L5.60156.79047a.24.24,0,0,1,.33887.33984L1.12988,5.94086A.23763.23763,0,0,1,.96045,6.01117Z"/></g></g></g></svg>