<svg xmlns="http://www.w3.org/2000/svg" xmlns:xlink="http://www.w3.org/1999/xlink" viewBox="0 0 15.3598 15.3598"><defs><clipPath id="clip-path"><rect width="15.3598" height="15.3601" style="fill:none"/></clipPath></defs><title>aaronpansringar-21</title><g id="Page_21" data-name="Page 21"><g id="Page_21-2" data-name="Page 21"><g style="clip-path:url(#clip-path)"><path d="M13.199,6.9599a.72.72,0,1,1,0,1.44H9.4181l2.6734,2.6733a.72.72,0,0,1-1.0182,1.0183L8.3999,9.4181v3.7808a.72.72,0,0,1-1.44,0V9.4181L4.2866,12.0915a.72.72,0,0,1-1.0183-1.0183L5.9417,8.3999H2.1609a.72.72,0,0,1,0-1.44H5.9417L3.2683,4.2865A.72.72,0,0,1,4.2866,3.2683L6.9599,5.9417V2.1608a.72.72,0,1,1,1.44,0V5.9417l2.6734-2.6734a.72.72,0,0,1,1.0182,1.0182L9.4181,6.9599Z"/></g></g></g></svg>