<svg xmlns="http://www.w3.org/2000/svg" xmlns:xlink="http://www.w3.org/1999/xlink" viewBox="0 0 15.3598 15.3598"><defs><clipPath id="clip-path"><rect width="15.3598" height="15.3601" style="fill:none"/></clipPath></defs><title>aaronpansringar-23</title><g id="Page_23" data-name="Page 23"><g id="Page_23-2" data-name="Page 23"><g style="clip-path:url(#clip-path)"><path d="M4.081,2.3975A1.15731,1.15731,0,0,1,5.2807,1.1979,1.21631,1.21631,0,0,1,6.4803,2.3975L6.0007,9.8354a.72.72,0,0,1-1.44,0Z" style="fill:#a61c01"/><path d="M4.9603,11.9982H5.601a.641.641,0,0,1,.6395.6395v.6406a.641.641,0,0,1-.6395.6395H4.9603a.64087.64087,0,0,1-.6394-.6395v-.6406a.64087.64087,0,0,1,.6394-.6395" style="fill:#a61c01;fill-rule:evenodd"/><path d="M8.8795,2.3975a1.15729,1.15729,0,0,1,1.1996-1.1996,1.21633,1.21633,0,0,1,1.1997,1.1996l-.4797,7.4379a.72.72,0,0,1-1.44,0Z" style="fill:#a61c01"/><path d="M9.7588,11.9982h.6407a.641.641,0,0,1,.6395.6395v.6406a.641.641,0,0,1-.6395.6395H9.7588a.641.641,0,0,1-.6395-.6395v-.6406a.641.641,0,0,1,.6395-.6395" style="fill:#a61c01;fill-rule:evenodd"/></g></g></g></svg>