<svg xmlns="http://www.w3.org/2000/svg" xmlns:xlink="http://www.w3.org/1999/xlink" viewBox="0 0 15.3598 15.3598"><defs><clipPath id="clip-path"><rect width="15.3598" height="15.3601" style="fill:none"/></clipPath></defs><title>aaronpansringar-18</title><g id="Page_18" data-name="Page 18"><g id="Page_18-2" data-name="Page 18"><g style="clip-path:url(#clip-path)"><path d="M10.149,10.48773S5.35211,5.69086,4.87164,5.21136a.24031.24031,0,1,1,.33985-.33984c.48047.47949,5.27734,5.27637,5.27734,5.27637Z"/><path d="M5.04156,10.558a.24023.24023,0,0,1-.16992-.41015C5.35211,9.6684,10.149,4.87152,10.149,4.87152l.33984.33984S5.692,10.00824,5.21149,10.48773A.23955.23955,0,0,1,5.04156,10.558Z"/><path d="M7.68024,15.3598a.23959.23959,0,0,1-.16993-.07031L.06989,7.85a.24047.24047,0,0,1,0-.33985L7.51031.07074a.24049.24049,0,0,1,.33985,0l7.43945,7.43945a.24049.24049,0,0,1,0,.33985L7.85016,15.28949A.23959.23959,0,0,1,7.68024,15.3598ZM.57965,7.68011,7.68024,14.7807l7.10058-7.10059L7.68024.57953Z"/></g></g></g></svg>